<?xml version="1.0" encoding="UTF-8"?>
<svg width="24px" height="24px" viewBox="0 0 24 24" version="1.1" xmlns="http://www.w3.org/2000/svg" xmlns:xlink="http://www.w3.org/1999/xlink">
    <!-- Generator: Sketch 55.2 (78181) - https://sketchapp.com -->
    <title>gscholar</title>
    <desc>Created with Sketch.</desc>
    <defs>
        <linearGradient x1="50%" y1="26.7419764%" x2="50%" y2="99.7563738%" id="linearGradient-1">
            <stop stop-color="#7B7B7B" offset="0%"></stop>
            <stop stop-color="#4E4E4E" offset="100%"></stop>
        </linearGradient>
    </defs>
    <g id="gscholar" stroke="none" stroke-width="1" fill="none" fill-rule="evenodd">
        <rect id="Rectangle" fill="url(#linearGradient-1)" x="1" y="1" width="22" height="22" rx="5"></rect>
        <path d="M16.8135683,5.9571969 L15.0223105,7.40235915 C15.3366423,7.80326994 15.6169779,8.35820126 15.6169779,9.10575745 C15.6169779,10.4083299 14.8414443,11.0596162 14.0659341,11.6516946 C13.7676609,11.8293181 13.4693878,12.1845651 13.4693878,12.59902 C13.4693878,13.0134749 13.7080297,13.2503295 13.9466248,13.4279298 L14.6028491,13.9015925 C15.4379906,14.6120866 16.0942149,15.2633728 16.0942149,16.5067607 C16.0942149,18.2237648 14.5431711,20 11.321821,20 C8.63736264,20 7.38461538,18.6974275 7.38461538,17.3356472 C7.38461538,16.684361 7.68288854,15.7962434 8.7566719,15.1449571 C9.89010989,14.434463 11.4411303,14.2568395 12.2762951,14.1976317 C11.978022,13.8423846 11.7394035,13.6055533 11.7394035,13.0134749 C11.7394035,12.7174357 11.9183673,12.4213965 11.978022,12.243773 L11.5007849,12.243773 C9.59183673,12.243773 8.51805338,10.763577 8.51805338,9.40179665 C8.51805338,9.22313342 8.53133149,9.04566826 8.5578877,8.87096774 L6,8.87096774 L10.6151968,5 L18,5 L17.3445165,5.52883514 L17.3445165,6.35984199 L17.5384615,6.70964976 L17.5384615,11.8938147 C17.3846154,12.1366479 17.2307692,12.2580645 17.0769231,12.2580645 C16.9230769,12.2580645 16.7692308,12.1366479 16.6153846,11.8938147 L16.6153846,6.70964976 L16.8135683,6.44195806 L16.8135683,5.9571969 Z M10.08,8.81132075 C10.08,10.1132075 10.86,11.8679245 12.3600235,11.8679245 C12.8400235,11.8679245 14.1,11.5849057 14.1,10.1132075 C14.1,8.98113208 13.26,7 11.7,7 C10.86,7 10.08,7.56603774 10.08,8.81132075 Z M12.2400235,19 C13.86,19 15,18.1509434 15,17.0754717 C15,16.1698113 14.4,15.7735849 12.9600235,14.8113208 C12.8400235,14.8113208 12.7199765,14.8113208 12.5400235,14.8113208 C12.36,14.8113208 11.34,14.8679245 10.56,15.0943396 C10.2,15.2641509 9,15.6603774 9,16.9056604 C9,18.1509434 10.26,19 12.2400235,19 Z" id="Combined-Shape" fill="#FFFFFF" fill-rule="nonzero"></path>
    </g>
</svg>